<svg width="65" height="65" viewBox="0 0 65 65" fill="none" xmlns="http://www.w3.org/2000/svg">
<g clip-path="url(#clip0_1710_34244)">
<path d="M60.375 0.27002H37.125C34.7126 0.27002 32.75 2.23264 32.75 4.64502V31.4396C33.6751 31.7095 34.5869 32.0323 35.4823 32.411C38.4596 33.6704 41.1329 35.4724 43.4276 37.7671C45.7224 40.0619 47.5244 42.7351 48.7837 45.7125C49.7909 48.0936 50.413 50.5883 50.6451 53.1539C52.8519 53.6733 54.5 55.6571 54.5 58.02V59.27C54.5 61.1281 53.916 62.8515 52.9245 64.27H60.375C62.7874 64.27 64.75 62.3074 64.75 59.895V4.64502C64.75 2.23264 62.7874 0.27002 60.375 0.27002ZM55.8125 20.77C56.848 20.77 57.6875 21.6095 57.6875 22.645C57.6875 23.6805 56.848 24.52 55.8125 24.52H41.6875C40.652 24.52 39.8125 23.6805 39.8125 22.645C39.8125 21.6095 40.652 20.77 41.6875 20.77H55.8125ZM44.5625 11.395C44.5625 10.3595 45.402 9.52002 46.4375 9.52002H51.0625C52.098 9.52002 52.9375 10.3595 52.9375 11.395C52.9375 12.4305 52.098 13.27 51.0625 13.27H46.4375C45.402 13.27 44.5625 12.4305 44.5625 11.395ZM41.6875 32.02C40.652 32.02 39.8125 31.1805 39.8125 30.145C39.8125 29.1095 40.652 28.27 41.6875 28.27H55.8125C56.848 28.27 57.6875 29.1095 57.6875 30.145C57.6875 31.1805 56.848 32.02 55.8125 32.02H41.6875Z" fill="#E1DAFF"/>
<path d="M23.8752 34.278C13.8194 35.1572 5.77267 43.0392 4.63867 53.0198H46.8617C45.7277 43.0392 37.6809 35.1572 27.6252 34.278V30.5136V30.2466H29.0245C30.06 30.2466 30.8995 29.4071 30.8995 28.3716C30.8995 27.3361 30.06 26.4966 29.0245 26.4966H22.4757C21.4402 26.4966 20.6007 27.3361 20.6007 28.3716C20.6007 29.4071 21.4402 30.2466 22.4757 30.2466H23.8752V30.5136V34.278ZM18.1054 44.2792C16.6797 45.2826 15.4918 46.6231 14.6705 48.156C14.3325 48.7868 13.685 49.1457 13.0163 49.1457C12.7173 49.1457 12.4143 49.0741 12.1323 48.9231C11.2195 48.434 10.8762 47.2976 11.3652 46.3848C12.4613 44.3392 14.0458 42.5507 15.9475 41.2125C16.7939 40.6165 17.9639 40.8198 18.5599 41.6668C19.1557 42.5136 18.9523 43.6832 18.1054 44.2792ZM24.5002 42.2563C24.0927 42.2563 23.6822 42.2786 23.2802 42.3225C23.2109 42.3301 23.1422 42.3337 23.0743 42.3337C22.13 42.3337 21.3175 41.6223 21.2127 40.6621C21.1003 39.6327 21.8435 38.707 22.8729 38.5946C23.4097 38.536 23.9572 38.5062 24.5002 38.5062C25.5357 38.5062 26.3752 39.3457 26.3752 40.3812C26.3752 41.4167 25.5357 42.2563 24.5002 42.2563Z" fill="#E1DAFF"/>
<path d="M50.75 59.27V58.02C50.75 57.3296 50.1904 56.77 49.5 56.77H2C1.30963 56.77 0.75 57.3296 0.75 58.02V59.27C0.75 62.0314 2.98863 64.27 5.75 64.27H37.125H45.75C48.5114 64.27 50.75 62.0314 50.75 59.27Z" fill="#E1DAFF"/>
</g>
<defs>
<clipPath id="clip0_1710_34244">
<rect width="64" height="64" fill="white" transform="translate(0.75 0.27002)"/>
</clipPath>
</defs>
</svg>
